<svg xmlns="http://www.w3.org/2000/svg" style="display: none;">
    <defs>
	    <!-- Github -->
        <symbol id="github-icon" viewBox="0 0 19 19">
            <path fill="currentColor" fill-rule="evenodd" d="M9.356 1.85C5.05 1.85 1.57 5.356 1.57 9.694a7.84 7.84 0 0 0 5.324 7.44c.387.079.528-.168.528-.376 0-.182-.013-.805-.013-1.454-2.165.467-2.616-.935-2.616-.935-.349-.91-.864-1.143-.864-1.143-.71-.48.051-.48.051-.48.787.051 1.2.805 1.2.805.695 1.194 1.817.857 2.268.649.064-.507.27-.857.49-1.052-1.728-.182-3.545-.857-3.545-3.87 0-.857.31-1.558.8-2.104-.078-.195-.349-1 .077-2.078 0 0 .657-.208 2.14.805a7.5 7.5 0 0 1 1.946-.26c.657 0 1.328.092 1.946.26 1.483-1.013 2.14-.805 2.14-.805.426 1.078.155 1.883.078 2.078.502.546.799 1.247.799 2.104 0 3.013-1.818 3.675-3.558 3.87.284.247.528.714.528 1.454 0 1.052-.012 1.896-.012 2.156 0 .208.142.455.528.377a7.84 7.84 0 0 0 5.324-7.441c.013-4.338-3.48-7.844-7.773-7.844" clip-rule="evenodd"/>
        </symbol>

	    <!-- Discord -->
        <symbol id="discord-icon" viewBox="0 0 20 19">
            <path fill="currentColor" d="M16.224 3.768a14.5 14.5 0 0 0-3.67-1.153c-.158.286-.343.67-.47.976a13.5 13.5 0 0 0-4.067 0c-.128-.306-.317-.69-.476-.976A14.4 14.4 0 0 0 3.868 3.77C1.546 7.28.916 10.703 1.231 14.077a14.7 14.7 0 0 0 4.5 2.306q.545-.748.965-1.587a9.5 9.5 0 0 1-1.518-.74q.191-.14.372-.293c2.927 1.369 6.107 1.369 8.999 0q.183.152.372.294-.723.437-1.52.74.418.838.963 1.588a14.6 14.6 0 0 0 4.504-2.308c.37-3.911-.63-7.302-2.644-10.309m-9.13 8.234c-.878 0-1.599-.82-1.599-1.82 0-.998.705-1.82 1.6-1.82.894 0 1.614.82 1.599 1.82.001 1-.705 1.82-1.6 1.82m5.91 0c-.878 0-1.599-.82-1.599-1.82 0-.998.705-1.82 1.6-1.82.893 0 1.614.82 1.599 1.82 0 1-.706 1.82-1.6 1.82"/>
        </symbol>

	    <!-- Youtube -->
        <symbol id="youtube-icon-black" viewBox="0 0 20 19">
        	<path d="M23.498,6.186c-0.276-1.039-1.089-1.858-2.122-2.136C19.505,3.546,12,3.546,12,3.546s-7.505,0-9.377,0.504   C1.591,4.328,0.778,5.146,0.502,6.186C0,8.07,0,12,0,12s0,3.93,0.502,5.814c0.276,1.039,1.089,1.858,2.122,2.136   C4.495,20.454,12,20.454,12,20.454s7.505,0,9.377-0.504c1.032-0.278,1.845-1.096,2.122-2.136C24,15.93,24,12,24,12   S24,8.07,23.498,6.186z M9.546,15.569V8.431L15.818,12L9.546,15.569z"/>
        </symbol>

	    <!-- Linkedln -->
        <symbol id="linkedln-icon-black" viewBox="0 0 32 32">
            <!-- <path id="Path_2525" d="M23.002,21.584h0.227l-0.435-0.658l0,0c0.266,0,0.407-0.169,0.409-0.376c0-0.008,0-0.017-0.001-0.025   c0-0.282-0.17-0.417-0.519-0.417h-0.564v1.476h0.212v-0.643h0.261L23.002,21.584z M22.577,20.774h-0.246v-0.499h0.312   c0.161,0,0.345,0.026,0.345,0.237c0,0.242-0.186,0.262-0.412,0.262"/> -->
            <path id="Path_2520" d="M17.291,19.073h-3.007v-4.709c0-1.123-0.02-2.568-1.564-2.568c-1.566,0-1.806,1.223-1.806,2.487v4.79H7.908   V9.389h2.887v1.323h0.04c0.589-1.006,1.683-1.607,2.848-1.564c3.048,0,3.609,2.005,3.609,4.612L17.291,19.073z M4.515,8.065   c-0.964,0-1.745-0.781-1.745-1.745c0-0.964,0.781-1.745,1.745-1.745c0.964,0,1.745,0.781,1.745,1.745   C6.26,7.284,5.479,8.065,4.515,8.065L4.515,8.065 M6.018,19.073h-3.01V9.389h3.01V19.073z M18.79,1.783H1.497   C0.68,1.774,0.01,2.429,0,3.246V20.61c0.01,0.818,0.68,1.473,1.497,1.464H18.79c0.819,0.01,1.492-0.645,1.503-1.464V3.245   c-0.012-0.819-0.685-1.474-1.503-1.463"/>
            <!-- <path id="Path_2526" d="M22.603,19.451c-0.764,0.007-1.378,0.633-1.37,1.397c0.007,0.764,0.633,1.378,1.397,1.37   c0.764-0.007,1.378-0.633,1.37-1.397c-0.007-0.754-0.617-1.363-1.37-1.37H22.603 M22.635,22.059   c-0.67,0.011-1.254-0.522-1.265-1.192c-0.011-0.67,0.523-1.222,1.193-1.233c0.67-0.011,1.222,0.523,1.233,1.193   c0,0.007,0,0.013,0,0.02C23.81,21.502,23.29,22.045,22.635,22.059h-0.031"/> -->
        </symbol>
    
    	<!-- Instagram -->
        <symbol id="instagram-icon-black" viewBox="0 0 20 19">
            <path d="M12,2.162c3.204,0,3.584,0.012,4.849,0.07c1.308,0.06,2.655,0.358,3.608,1.311c0.962,0.962,1.251,2.296,1.311,3.608   c0.058,1.265,0.07,1.645,0.07,4.849c0,3.204-0.012,3.584-0.07,4.849c-0.059,1.301-0.364,2.661-1.311,3.608   c-0.962,0.962-2.295,1.251-3.608,1.311c-1.265,0.058-1.645,0.07-4.849,0.07s-3.584-0.012-4.849-0.07   c-1.291-0.059-2.669-0.371-3.608-1.311c-0.957-0.957-1.251-2.304-1.311-3.608c-0.058-1.265-0.07-1.645-0.07-4.849   c0-3.204,0.012-3.584,0.07-4.849c0.059-1.296,0.367-2.664,1.311-3.608c0.96-0.96,2.299-1.251,3.608-1.311   C8.416,2.174,8.796,2.162,12,2.162 M12,0C8.741,0,8.332,0.014,7.052,0.072C5.197,0.157,3.355,0.673,2.014,2.014   C0.668,3.36,0.157,5.198,0.072,7.052C0.014,8.332,0,8.741,0,12c0,3.259,0.014,3.668,0.072,4.948c0.085,1.853,0.603,3.7,1.942,5.038   c1.345,1.345,3.186,1.857,5.038,1.942C8.332,23.986,8.741,24,12,24c3.259,0,3.668-0.014,4.948-0.072   c1.854-0.085,3.698-0.602,5.038-1.942c1.347-1.347,1.857-3.184,1.942-5.038C23.986,15.668,24,15.259,24,12   c0-3.259-0.014-3.668-0.072-4.948c-0.085-1.855-0.602-3.698-1.942-5.038c-1.343-1.343-3.189-1.858-5.038-1.942   C15.668,0.014,15.259,0,12,0z"/>
            <path d="M12,5.838c-3.403,0-6.162,2.759-6.162,6.162c0,3.403,2.759,6.162,6.162,6.162s6.162-2.759,6.162-6.162   C18.162,8.597,15.403,5.838,12,5.838z M12,16c-2.209,0-4-1.791-4-4s1.791-4,4-4s4,1.791,4,4S14.209,16,12,16z"/>
            <circle cx="18.406" cy="5.594" r="1.44"/>
        </symbol>

    	<!-- Facebook -->
        <symbol id="facebook-icon-black" viewBox="0 0 24 24">
            <path d="M24,12.073c0,5.989-4.394,10.954-10.13,11.855v-8.363h2.789l0.531-3.46H13.87V9.86c0-0.947,0.464-1.869,1.95-1.869h1.509   V5.045c0,0-1.37-0.234-2.679-0.234c-2.734,0-4.52,1.657-4.52,4.656v2.637H7.091v3.46h3.039v8.363C4.395,23.025,0,18.061,0,12.073   c0-6.627,5.373-12,12-12S24,5.445,24,12.073z"/> 
        </symbol>
	</defs>
</svg>
