<svg xmlns="http://www.w3.org/2000/svg" style="display: none;">
    <defs>
	    <!-- Light -->
	    <symbol id="light-eclipse-icon" viewBox="0 0 24 24">
            <path d="M23,11H19.938a7.956,7.956,0,0,0-.575-2.129l2.655-1.546A1,1,0,0,0,21.012,5.6L18.354,7.145a8.1,8.1,0,0,0-1.507-1.5l1.541-2.648a1,1,0,0,0-1.729-1.006L15.12,4.633A7.971,7.971,0,0,0,13,4.062V1a1,1,0,0,0-2,0V4.062a7.965,7.965,0,0,0-2.108.566L7.355,1.986A1,1,0,1,0,5.627,2.992L7.163,5.633A8.046,8.046,0,0,0,5.651,7.139L3,5.6A1,1,0,0,0,2,7.325L4.64,8.865A7.955,7.955,0,0,0,4.062,11H1a1,1,0,0,0,0,2H4.062a7.957,7.957,0,0,0,.576,2.129L2,16.662A1,1,0,0,0,3.01,18.391l2.637-1.535a8.083,8.083,0,0,0,1.5,1.5L5.6,21A1,1,0,0,0,7.33,22.007l1.538-2.646A7.943,7.943,0,0,0,11,19.938V23a1,1,0,0,0,2,0V19.938a7.934,7.934,0,0,0,2.143-.582l1.543,2.651A1,1,0,0,0,18.414,21l-1.546-2.657a8.076,8.076,0,0,0,1.49-1.494l2.647,1.541a1,1,0,0,0,1.006-1.729l-2.646-1.54A7.941,7.941,0,0,0,19.938,13H23A1,1,0,0,0,23,11ZM12,18C4.356,17.906,3.792,6.32,12,6,19.929,6.252,19.928,17.749,12,18Zm1.455-2.229C7.889,17.5,5.64,9.3,11.361,8.051a4.393,4.393,0,0,1,1.683.068.544.544,0,0,1,.243.918,3.7,3.7,0,0,0,.319,5.793A.545.545,0,0,1,13.455,15.771Z"/>
		</symbol>

	    <!-- Light -->
	    <symbol id="dark-moon-icon" viewBox="0 0 24 24">
            <path d="M12,24C5.383,24,0,18.617,0,12S5.383,0,12,0c2.011,0,4.013,.521,5.79,1.508l.821,.456-.836,.427c-2.799,1.428-5.774,5.106-5.774,9.109,0,4.142,2.734,8.054,6.648,9.512l.903,.337-.795,.544c-2.012,1.378-4.349,2.106-6.756,2.106ZM12,1C5.935,1,1,5.935,1,12s4.935,11,11,11c1.896,0,3.744-.494,5.397-1.435-3.81-1.833-6.397-5.84-6.397-10.065,0-4.008,2.701-7.713,5.497-9.523-1.416-.641-2.953-.977-4.497-.977Zm7.5,13.118l-1.499-2.998-2.998-1.499,2.998-1.499,1.499-2.998,1.499,2.998,2.998,1.499-2.998,1.499-1.499,2.998Zm-2.26-4.497l1.507,.754,.753,1.506,.753-1.506,1.507-.754-1.507-.753-.753-1.506-.753,1.506-1.507,.753Zm5.76,8.378c-.552,0-1,.448-1,1s.448,1,1,1,1-.448,1-1-.448-1-1-1Zm-6-3c-.552,0-1,.448-1,1s.448,1,1,1,1-.448,1-1-.448-1-1-1Z"/>
		</symbol>
	</defs>
</svg>